<?xml version="1.0" standalone="no"?><!-- Generator: Gravit.io --><svg xmlns="http://www.w3.org/2000/svg" xmlns:xlink="http://www.w3.org/1999/xlink" style="isolation:isolate" viewBox="0 0 505 315" width="505" height="315"><defs><clipPath id="_clipPath_azxcEKEZfxhWtvTv5SU0nEd5r4EXaAJP"><rect width="505" height="315"/></clipPath></defs><g clip-path="url(#_clipPath_azxcEKEZfxhWtvTv5SU0nEd5r4EXaAJP)"><g><path d=" M 237.797 63.483 C 237.797 56.593 243.39 51 250.279 51 C 257.169 51 262.762 56.593 262.762 63.483 C 262.762 70.372 257.169 75.965 250.279 75.965 C 243.39 75.965 237.797 70.372 237.797 63.483 Z  M 228 101.721 C 228 89.425 237.983 79.442 250.279 79.442 C 262.575 79.442 272.558 89.425 272.558 101.721 C 272.558 114.017 262.575 124 250.279 124 C 237.983 124 228 114.017 228 101.721 Z " fill-rule="evenodd" fill="rgb(87,219,151)"/></g><g><path d=" M 296.517 111.483 C 296.517 104.593 302.111 99 309 99 C 315.889 99 321.483 104.593 321.483 111.483 C 321.483 118.372 315.889 123.965 309 123.965 C 302.111 123.965 296.517 118.372 296.517 111.483 Z  M 286.721 149.721 C 286.721 137.425 296.704 127.442 309 127.442 C 321.296 127.442 331.279 137.425 331.279 149.721 C 331.279 162.017 321.296 172 309 172 C 296.704 172 286.721 162.017 286.721 149.721 Z " fill-rule="evenodd" fill="rgb(51,189,113)"/></g><g><path d=" M 351.517 160.483 C 351.517 153.593 357.111 148 364 148 C 370.889 148 376.483 153.593 376.483 160.483 C 376.483 167.372 370.889 172.965 364 172.965 C 357.111 172.965 351.517 167.372 351.517 160.483 Z  M 341.721 198.721 C 341.721 186.425 351.704 176.442 364 176.442 C 376.296 176.442 386.279 186.425 386.279 198.721 C 386.279 211.017 376.296 221 364 221 C 351.704 221 341.721 211.017 341.721 198.721 Z " fill-rule="evenodd" fill="rgb(28,174,113)"/></g><rect x="10.448" y="86.75" width="180.104" height="209" transform="matrix(1,0,0,1,0,0)" fill="rgb(235,235,235)"/><g><rect x="67" y="133" width="106" height="24.5" transform="matrix(1,0,0,1,0,0)" fill="rgb(128,128,128)"/><rect x="28" y="133" width="27" height="24.5" transform="matrix(1,0,0,1,0,0)" fill="rgb(235,235,235)" vector-effect="non-scaling-stroke" stroke-width="1" stroke="rgb(0,0,0)" stroke-linejoin="miter" stroke-linecap="square" stroke-miterlimit="2"/><path d=" M 28 140.625 C 30.886 143.15 33.425 146.953 35.583 152 C 39.75 143.75 47.75 135 63 126" fill="none" vector-effect="non-scaling-stroke" stroke-width="4" stroke="rgb(0,0,0)" stroke-linejoin="miter" stroke-linecap="square" stroke-miterlimit="3"/></g><g><rect x="67" y="133" width="106" height="24.5" transform="matrix(1,0,0,1,0,0)" fill="rgb(128,128,128)"/><rect x="67" y="182.5" width="106" height="24.5" transform="matrix(1,0,0,1,0,0)" fill="rgb(128,128,128)"/><rect x="67" y="232" width="106" height="24.5" transform="matrix(1,0,0,1,0,0)" fill="rgb(128,128,128)"/><rect x="28" y="133" width="27" height="24.5" transform="matrix(1,0,0,1,0,0)" fill="rgb(235,235,235)" vector-effect="non-scaling-stroke" stroke-width="1" stroke="rgb(0,0,0)" stroke-linejoin="miter" stroke-linecap="square" stroke-miterlimit="2"/><rect x="28" y="182.5" width="27" height="24.5" transform="matrix(1,0,0,1,0,0)" fill="rgb(235,235,235)" vector-effect="non-scaling-stroke" stroke-width="1" stroke="rgb(0,0,0)" stroke-linejoin="miter" stroke-linecap="square" stroke-miterlimit="2"/><rect x="28" y="232" width="27" height="24.5" transform="matrix(1,0,0,1,0,0)" fill="rgb(235,235,235)" vector-effect="non-scaling-stroke" stroke-width="1" stroke="rgb(0,0,0)" stroke-linejoin="miter" stroke-linecap="square" stroke-miterlimit="2"/><path d=" M 28 140.625 C 30.886 143.15 33.425 146.953 35.583 152 C 39.75 143.75 47.75 135 63 126" fill="none" vector-effect="non-scaling-stroke" stroke-width="4" stroke="rgb(18,185,177)" stroke-linejoin="miter" stroke-linecap="square" stroke-miterlimit="3"/><path d=" M 28 190.125 C 30.886 192.65 33.425 196.453 35.583 201.5 C 39.75 193.25 47.75 184.5 63 175.5" fill="none" vector-effect="non-scaling-stroke" stroke-width="4" stroke="rgb(18,185,177)" stroke-linejoin="miter" stroke-linecap="square" stroke-miterlimit="3"/><path d=" M 28 239.625 C 30.886 242.15 33.425 245.953 35.583 251 C 39.75 242.75 47.75 234 63 225" fill="none" vector-effect="non-scaling-stroke" stroke-width="4" stroke="rgb(18,185,177)" stroke-linejoin="miter" stroke-linecap="square" stroke-miterlimit="3"/></g><path d=" M 178 147 L 250.279 147 L 250.279 129" fill="none" vector-effect="non-scaling-stroke" stroke-width="3" stroke="rgb(0,138,236)" stroke-linejoin="miter" stroke-linecap="square" stroke-miterlimit="3"/><path d=" M 178 196 L 309 196 L 309 176" fill="none" vector-effect="non-scaling-stroke" stroke-width="3" stroke="rgb(0,138,236)" stroke-linejoin="miter" stroke-linecap="square" stroke-miterlimit="3"/><path d=" M 178 245 L 364 245 L 364 225" fill="none" vector-effect="non-scaling-stroke" stroke-width="3" stroke="rgb(0,138,236)" stroke-linejoin="miter" stroke-linecap="square" stroke-miterlimit="3"/></g></svg>